<mxfile host="app.diagrams.net" agent="Mozilla/5.0 (Windows NT 10.0; Win64; x64) AppleWebKit/537.36 (KHTML, like Gecko) Chrome/131.0.0.0 Safari/537.36 Edg/131.0.0.0" version="24.8.6">
  <diagram name="Страница — 1" id="WH3BdvgSFYpvYEeZCVCw">
    <mxGraphModel dx="1603" dy="885" grid="1" gridSize="10" guides="1" tooltips="1" connect="1" arrows="1" fold="1" page="1" pageScale="1" pageWidth="827" pageHeight="1169" math="0" shadow="0">
      <root>
        <mxCell id="0" />
        <mxCell id="1" parent="0" />
        <mxCell id="vzc5y1k5PjnZ1iydnmMH-1" style="edgeStyle=orthogonalEdgeStyle;rounded=0;orthogonalLoop=1;jettySize=auto;html=1;entryX=0.5;entryY=0;entryDx=0;entryDy=0;" edge="1" parent="1" source="vzc5y1k5PjnZ1iydnmMH-2" target="vzc5y1k5PjnZ1iydnmMH-31">
          <mxGeometry relative="1" as="geometry" />
        </mxCell>
        <mxCell id="vzc5y1k5PjnZ1iydnmMH-2" value="Начало" style="rounded=1;whiteSpace=wrap;html=1;arcSize=50;" vertex="1" parent="1">
          <mxGeometry x="360" y="30" width="120" height="60" as="geometry" />
        </mxCell>
        <mxCell id="vzc5y1k5PjnZ1iydnmMH-3" style="edgeStyle=orthogonalEdgeStyle;rounded=0;orthogonalLoop=1;jettySize=auto;html=1;entryX=0.5;entryY=0;entryDx=0;entryDy=0;" edge="1" parent="1" source="vzc5y1k5PjnZ1iydnmMH-4" target="vzc5y1k5PjnZ1iydnmMH-7">
          <mxGeometry relative="1" as="geometry" />
        </mxCell>
        <mxCell id="vzc5y1k5PjnZ1iydnmMH-4" value="ввод arraySize" style="shape=parallelogram;perimeter=parallelogramPerimeter;whiteSpace=wrap;html=1;fixedSize=1;" vertex="1" parent="1">
          <mxGeometry x="360" y="250" width="120" height="60" as="geometry" />
        </mxCell>
        <mxCell id="vzc5y1k5PjnZ1iydnmMH-5" style="edgeStyle=orthogonalEdgeStyle;rounded=0;orthogonalLoop=1;jettySize=auto;html=1;entryX=1;entryY=0.5;entryDx=0;entryDy=0;" edge="1" parent="1" source="vzc5y1k5PjnZ1iydnmMH-7" target="vzc5y1k5PjnZ1iydnmMH-9">
          <mxGeometry relative="1" as="geometry" />
        </mxCell>
        <mxCell id="vzc5y1k5PjnZ1iydnmMH-50" style="edgeStyle=orthogonalEdgeStyle;rounded=0;orthogonalLoop=1;jettySize=auto;html=1;entryX=0.5;entryY=0;entryDx=0;entryDy=0;" edge="1" parent="1" source="vzc5y1k5PjnZ1iydnmMH-7" target="vzc5y1k5PjnZ1iydnmMH-16">
          <mxGeometry relative="1" as="geometry" />
        </mxCell>
        <mxCell id="vzc5y1k5PjnZ1iydnmMH-7" value="&lt;font style=&quot;font-size: 10px;&quot;&gt;0 &amp;lt; arraySize &amp;lt;= 100&lt;/font&gt;" style="rhombus;whiteSpace=wrap;html=1;" vertex="1" parent="1">
          <mxGeometry x="352.5" y="360" width="135" height="110" as="geometry" />
        </mxCell>
        <mxCell id="vzc5y1k5PjnZ1iydnmMH-8" style="edgeStyle=orthogonalEdgeStyle;rounded=0;orthogonalLoop=1;jettySize=auto;html=1;exitX=0;exitY=0.5;exitDx=0;exitDy=0;" edge="1" parent="1" source="vzc5y1k5PjnZ1iydnmMH-9">
          <mxGeometry relative="1" as="geometry">
            <mxPoint x="420" y="220" as="targetPoint" />
            <Array as="points">
              <mxPoint x="120" y="415" />
              <mxPoint x="120" y="220" />
            </Array>
          </mxGeometry>
        </mxCell>
        <mxCell id="vzc5y1k5PjnZ1iydnmMH-9" value="&lt;font style=&quot;font-size: 11px;&quot;&gt;Вывод&lt;br&gt;&quot;&lt;/font&gt;&lt;span style=&quot;font-size: 11px;&quot;&gt;Размерность&lt;/span&gt;&lt;div&gt;&lt;span style=&quot;font-size: 11px;&quot;&gt;&amp;nbsp;введена неправильно&lt;/span&gt;&lt;span style=&quot;font-size: 11px; background-color: initial;&quot;&gt;&quot;&lt;/span&gt;&lt;/div&gt;" style="shape=parallelogram;perimeter=parallelogramPerimeter;whiteSpace=wrap;html=1;fixedSize=1;" vertex="1" parent="1">
          <mxGeometry x="160" y="385" width="120" height="60" as="geometry" />
        </mxCell>
        <mxCell id="vzc5y1k5PjnZ1iydnmMH-52" style="edgeStyle=orthogonalEdgeStyle;rounded=0;orthogonalLoop=1;jettySize=auto;html=1;entryX=0.5;entryY=0;entryDx=0;entryDy=0;" edge="1" parent="1" source="vzc5y1k5PjnZ1iydnmMH-16" target="vzc5y1k5PjnZ1iydnmMH-51">
          <mxGeometry relative="1" as="geometry" />
        </mxCell>
        <mxCell id="vzc5y1k5PjnZ1iydnmMH-16" value="&lt;font style=&quot;font-size: 10px;&quot;&gt;Выбор способа ввода&lt;/font&gt;&lt;div style=&quot;font-size: 10px;&quot;&gt;&lt;font style=&quot;font-size: 10px;&quot;&gt;- Ввод flag&lt;/font&gt;&lt;/div&gt;" style="shape=parallelogram;perimeter=parallelogramPerimeter;whiteSpace=wrap;html=1;fixedSize=1;" vertex="1" parent="1">
          <mxGeometry x="355" y="530" width="130" height="65" as="geometry" />
        </mxCell>
        <mxCell id="vzc5y1k5PjnZ1iydnmMH-22" value="Да" style="text;html=1;align=center;verticalAlign=middle;whiteSpace=wrap;rounded=0;" vertex="1" parent="1">
          <mxGeometry x="352.5" y="480" width="60" height="30" as="geometry" />
        </mxCell>
        <mxCell id="vzc5y1k5PjnZ1iydnmMH-23" value="Нет" style="text;html=1;align=center;verticalAlign=middle;whiteSpace=wrap;rounded=0;" vertex="1" parent="1">
          <mxGeometry x="300" y="355" width="60" height="30" as="geometry" />
        </mxCell>
        <mxCell id="vzc5y1k5PjnZ1iydnmMH-30" style="edgeStyle=orthogonalEdgeStyle;rounded=0;orthogonalLoop=1;jettySize=auto;html=1;entryX=0.5;entryY=0;entryDx=0;entryDy=0;" edge="1" parent="1" source="vzc5y1k5PjnZ1iydnmMH-31" target="vzc5y1k5PjnZ1iydnmMH-4">
          <mxGeometry relative="1" as="geometry" />
        </mxCell>
        <mxCell id="vzc5y1k5PjnZ1iydnmMH-31" value="Объявление инициализация переменных" style="rounded=0;whiteSpace=wrap;html=1;" vertex="1" parent="1">
          <mxGeometry x="360" y="120" width="120" height="60" as="geometry" />
        </mxCell>
        <mxCell id="vzc5y1k5PjnZ1iydnmMH-56" style="edgeStyle=orthogonalEdgeStyle;rounded=0;orthogonalLoop=1;jettySize=auto;html=1;entryX=0.5;entryY=0;entryDx=0;entryDy=0;" edge="1" parent="1" source="vzc5y1k5PjnZ1iydnmMH-51" target="vzc5y1k5PjnZ1iydnmMH-54">
          <mxGeometry relative="1" as="geometry" />
        </mxCell>
        <mxCell id="vzc5y1k5PjnZ1iydnmMH-57" style="edgeStyle=orthogonalEdgeStyle;rounded=0;orthogonalLoop=1;jettySize=auto;html=1;entryX=0.5;entryY=0;entryDx=0;entryDy=0;" edge="1" parent="1" target="vzc5y1k5PjnZ1iydnmMH-55">
          <mxGeometry relative="1" as="geometry">
            <mxPoint x="420" y="829" as="sourcePoint" />
            <mxPoint x="585" y="868" as="targetPoint" />
            <Array as="points">
              <mxPoint x="585" y="829" />
            </Array>
          </mxGeometry>
        </mxCell>
        <mxCell id="vzc5y1k5PjnZ1iydnmMH-51" value="&lt;font style=&quot;font-size: 12px;&quot;&gt;flag&lt;/font&gt;" style="rhombus;whiteSpace=wrap;html=1;" vertex="1" parent="1">
          <mxGeometry x="352.5" y="678" width="135" height="110" as="geometry" />
        </mxCell>
        <mxCell id="vzc5y1k5PjnZ1iydnmMH-61" style="edgeStyle=orthogonalEdgeStyle;rounded=0;orthogonalLoop=1;jettySize=auto;html=1;entryX=0.5;entryY=0;entryDx=0;entryDy=0;" edge="1" parent="1" source="vzc5y1k5PjnZ1iydnmMH-54" target="vzc5y1k5PjnZ1iydnmMH-60">
          <mxGeometry relative="1" as="geometry" />
        </mxCell>
        <mxCell id="vzc5y1k5PjnZ1iydnmMH-54" value="Заполнениемассива пользователем" style="shape=process;whiteSpace=wrap;html=1;backgroundOutline=1;" vertex="1" parent="1">
          <mxGeometry x="185" y="870" width="170" height="70" as="geometry" />
        </mxCell>
        <mxCell id="vzc5y1k5PjnZ1iydnmMH-62" style="edgeStyle=orthogonalEdgeStyle;rounded=0;orthogonalLoop=1;jettySize=auto;html=1;" edge="1" parent="1">
          <mxGeometry relative="1" as="geometry">
            <mxPoint x="435" y="990" as="targetPoint" />
            <mxPoint x="580" y="940.0000000000001" as="sourcePoint" />
            <Array as="points">
              <mxPoint x="580" y="990" />
            </Array>
          </mxGeometry>
        </mxCell>
        <mxCell id="vzc5y1k5PjnZ1iydnmMH-55" value="Заполнение массива случайными числами в диапазоне" style="shape=process;whiteSpace=wrap;html=1;backgroundOutline=1;" vertex="1" parent="1">
          <mxGeometry x="500" y="870" width="170" height="70" as="geometry" />
        </mxCell>
        <mxCell id="vzc5y1k5PjnZ1iydnmMH-58" value="= 1" style="text;html=1;align=center;verticalAlign=middle;whiteSpace=wrap;rounded=0;" vertex="1" parent="1">
          <mxGeometry x="340" y="790" width="60" height="30" as="geometry" />
        </mxCell>
        <mxCell id="vzc5y1k5PjnZ1iydnmMH-59" value="= 2" style="text;html=1;align=center;verticalAlign=middle;whiteSpace=wrap;rounded=0;" vertex="1" parent="1">
          <mxGeometry x="460" y="788" width="60" height="30" as="geometry" />
        </mxCell>
        <mxCell id="vzc5y1k5PjnZ1iydnmMH-90" style="edgeStyle=orthogonalEdgeStyle;rounded=0;orthogonalLoop=1;jettySize=auto;html=1;entryX=0.5;entryY=0;entryDx=0;entryDy=0;" edge="1" parent="1" source="vzc5y1k5PjnZ1iydnmMH-60" target="vzc5y1k5PjnZ1iydnmMH-89">
          <mxGeometry relative="1" as="geometry" />
        </mxCell>
        <mxCell id="vzc5y1k5PjnZ1iydnmMH-60" value="Вывод исходного массива&amp;nbsp;" style="shape=process;whiteSpace=wrap;html=1;backgroundOutline=1;" vertex="1" parent="1">
          <mxGeometry x="350" y="1020" width="170" height="70" as="geometry" />
        </mxCell>
        <mxCell id="vzc5y1k5PjnZ1iydnmMH-85" style="edgeStyle=orthogonalEdgeStyle;rounded=0;orthogonalLoop=1;jettySize=auto;html=1;entryX=0.5;entryY=0;entryDx=0;entryDy=0;" edge="1" parent="1" source="vzc5y1k5PjnZ1iydnmMH-63" target="vzc5y1k5PjnZ1iydnmMH-83">
          <mxGeometry relative="1" as="geometry" />
        </mxCell>
        <mxCell id="vzc5y1k5PjnZ1iydnmMH-63" value="&lt;font style=&quot;font-size: 10px;&quot;&gt;Сортировка массива&amp;nbsp;allEvenSequences&amp;nbsp; пузырьком&amp;nbsp;&amp;nbsp;&lt;/font&gt;" style="shape=process;whiteSpace=wrap;html=1;backgroundOutline=1;" vertex="1" parent="1">
          <mxGeometry x="355.03" y="2075" width="170" height="70" as="geometry" />
        </mxCell>
        <mxCell id="vzc5y1k5PjnZ1iydnmMH-66" style="edgeStyle=orthogonalEdgeStyle;rounded=0;orthogonalLoop=1;jettySize=auto;html=1;entryX=0.5;entryY=0;entryDx=0;entryDy=0;" edge="1" parent="1" source="vzc5y1k5PjnZ1iydnmMH-64" target="vzc5y1k5PjnZ1iydnmMH-65">
          <mxGeometry relative="1" as="geometry" />
        </mxCell>
        <mxCell id="vzc5y1k5PjnZ1iydnmMH-80" style="edgeStyle=orthogonalEdgeStyle;rounded=0;orthogonalLoop=1;jettySize=auto;html=1;entryX=0.5;entryY=0;entryDx=0;entryDy=0;" edge="1" parent="1" source="vzc5y1k5PjnZ1iydnmMH-64" target="vzc5y1k5PjnZ1iydnmMH-63">
          <mxGeometry relative="1" as="geometry">
            <mxPoint x="440.0299999999999" y="2025" as="targetPoint" />
            <Array as="points">
              <mxPoint x="580.0300000000001" y="1625" />
              <mxPoint x="580.0300000000001" y="2005" />
              <mxPoint x="440.0299999999999" y="2005" />
              <mxPoint x="440.0299999999999" y="2075" />
            </Array>
          </mxGeometry>
        </mxCell>
        <mxCell id="vzc5y1k5PjnZ1iydnmMH-64" value="number : array" style="shape=hexagon;perimeter=hexagonPerimeter2;whiteSpace=wrap;html=1;fixedSize=1;" vertex="1" parent="1">
          <mxGeometry x="337.53" y="1585" width="195" height="80" as="geometry" />
        </mxCell>
        <mxCell id="vzc5y1k5PjnZ1iydnmMH-71" style="edgeStyle=orthogonalEdgeStyle;rounded=0;orthogonalLoop=1;jettySize=auto;html=1;entryX=0.5;entryY=0;entryDx=0;entryDy=0;" edge="1" parent="1" source="vzc5y1k5PjnZ1iydnmMH-65" target="vzc5y1k5PjnZ1iydnmMH-70">
          <mxGeometry relative="1" as="geometry" />
        </mxCell>
        <mxCell id="vzc5y1k5PjnZ1iydnmMH-75" style="edgeStyle=orthogonalEdgeStyle;rounded=0;orthogonalLoop=1;jettySize=auto;html=1;entryX=1;entryY=0.5;entryDx=0;entryDy=0;" edge="1" parent="1" source="vzc5y1k5PjnZ1iydnmMH-65" target="vzc5y1k5PjnZ1iydnmMH-74">
          <mxGeometry relative="1" as="geometry" />
        </mxCell>
        <mxCell id="vzc5y1k5PjnZ1iydnmMH-65" value="&lt;font style=&quot;font-size: 12px;&quot;&gt;number % 2 == 0&lt;/font&gt;" style="rhombus;whiteSpace=wrap;html=1;" vertex="1" parent="1">
          <mxGeometry x="367.53" y="1735" width="135" height="110" as="geometry" />
        </mxCell>
        <mxCell id="vzc5y1k5PjnZ1iydnmMH-69" style="edgeStyle=orthogonalEdgeStyle;rounded=0;orthogonalLoop=1;jettySize=auto;html=1;" edge="1" parent="1" source="vzc5y1k5PjnZ1iydnmMH-67" target="vzc5y1k5PjnZ1iydnmMH-64">
          <mxGeometry relative="1" as="geometry" />
        </mxCell>
        <mxCell id="vzc5y1k5PjnZ1iydnmMH-67" value="Объявление инициализация переменных" style="rounded=0;whiteSpace=wrap;html=1;" vertex="1" parent="1">
          <mxGeometry x="375.03" y="1450" width="120" height="60" as="geometry" />
        </mxCell>
        <mxCell id="vzc5y1k5PjnZ1iydnmMH-79" style="edgeStyle=orthogonalEdgeStyle;rounded=0;orthogonalLoop=1;jettySize=auto;html=1;" edge="1" parent="1" source="vzc5y1k5PjnZ1iydnmMH-70">
          <mxGeometry relative="1" as="geometry">
            <mxPoint x="100.03" y="1785" as="targetPoint" />
          </mxGeometry>
        </mxCell>
        <mxCell id="vzc5y1k5PjnZ1iydnmMH-70" value="Добавляем number в&amp;nbsp;currentSequence" style="rounded=0;whiteSpace=wrap;html=1;" vertex="1" parent="1">
          <mxGeometry x="375.03" y="1915" width="120" height="60" as="geometry" />
        </mxCell>
        <mxCell id="vzc5y1k5PjnZ1iydnmMH-72" value="Да" style="text;html=1;align=center;verticalAlign=middle;whiteSpace=wrap;rounded=0;" vertex="1" parent="1">
          <mxGeometry x="450.0299999999999" y="1870" width="60" height="30" as="geometry" />
        </mxCell>
        <mxCell id="vzc5y1k5PjnZ1iydnmMH-73" value="Нет" style="text;html=1;align=center;verticalAlign=middle;whiteSpace=wrap;rounded=0;" vertex="1" parent="1">
          <mxGeometry x="315.03" y="1745" width="60" height="30" as="geometry" />
        </mxCell>
        <mxCell id="vzc5y1k5PjnZ1iydnmMH-77" style="edgeStyle=orthogonalEdgeStyle;rounded=0;orthogonalLoop=1;jettySize=auto;html=1;entryX=0;entryY=0.5;entryDx=0;entryDy=0;" edge="1" parent="1" source="vzc5y1k5PjnZ1iydnmMH-74" target="vzc5y1k5PjnZ1iydnmMH-64">
          <mxGeometry relative="1" as="geometry">
            <Array as="points">
              <mxPoint x="100.03" y="1790" />
              <mxPoint x="100.03" y="1625" />
            </Array>
          </mxGeometry>
        </mxCell>
        <mxCell id="vzc5y1k5PjnZ1iydnmMH-74" value="&lt;font style=&quot;font-size: 10px;&quot;&gt;Добавляем&amp;nbsp; currentSequence в&amp;nbsp;allEvenSequences и очищаем currentSequence&amp;nbsp;&amp;nbsp;&lt;/font&gt;" style="rounded=0;whiteSpace=wrap;html=1;" vertex="1" parent="1">
          <mxGeometry x="160.03" y="1760" width="145" height="60" as="geometry" />
        </mxCell>
        <mxCell id="vzc5y1k5PjnZ1iydnmMH-82" value="Конец" style="rounded=1;whiteSpace=wrap;html=1;arcSize=50;" vertex="1" parent="1">
          <mxGeometry x="380.03" y="2505" width="120" height="60" as="geometry" />
        </mxCell>
        <mxCell id="vzc5y1k5PjnZ1iydnmMH-86" style="edgeStyle=orthogonalEdgeStyle;rounded=0;orthogonalLoop=1;jettySize=auto;html=1;entryX=0.5;entryY=0;entryDx=0;entryDy=0;" edge="1" parent="1" source="vzc5y1k5PjnZ1iydnmMH-83" target="vzc5y1k5PjnZ1iydnmMH-84">
          <mxGeometry relative="1" as="geometry" />
        </mxCell>
        <mxCell id="vzc5y1k5PjnZ1iydnmMH-83" value="&lt;font style=&quot;font-size: 10px;&quot;&gt;Сортировка массива array подсчетом&amp;nbsp;&amp;nbsp;&lt;/font&gt;" style="shape=process;whiteSpace=wrap;html=1;backgroundOutline=1;" vertex="1" parent="1">
          <mxGeometry x="355.03" y="2215" width="170" height="70" as="geometry" />
        </mxCell>
        <mxCell id="vzc5y1k5PjnZ1iydnmMH-87" style="edgeStyle=orthogonalEdgeStyle;rounded=0;orthogonalLoop=1;jettySize=auto;html=1;entryX=0.5;entryY=0;entryDx=0;entryDy=0;" edge="1" parent="1" source="vzc5y1k5PjnZ1iydnmMH-84" target="vzc5y1k5PjnZ1iydnmMH-82">
          <mxGeometry relative="1" as="geometry" />
        </mxCell>
        <mxCell id="vzc5y1k5PjnZ1iydnmMH-84" value="Вывод отсортированного массива" style="shape=process;whiteSpace=wrap;html=1;backgroundOutline=1;" vertex="1" parent="1">
          <mxGeometry x="355.03" y="2365" width="170" height="70" as="geometry" />
        </mxCell>
        <mxCell id="vzc5y1k5PjnZ1iydnmMH-91" style="edgeStyle=orthogonalEdgeStyle;rounded=0;orthogonalLoop=1;jettySize=auto;html=1;entryX=0.5;entryY=0;entryDx=0;entryDy=0;" edge="1" parent="1" source="vzc5y1k5PjnZ1iydnmMH-88" target="vzc5y1k5PjnZ1iydnmMH-67">
          <mxGeometry relative="1" as="geometry" />
        </mxCell>
        <mxCell id="vzc5y1k5PjnZ1iydnmMH-88" value="B" style="ellipse;whiteSpace=wrap;html=1;aspect=fixed;" vertex="1" parent="1">
          <mxGeometry x="400.03" y="1340" width="70" height="70" as="geometry" />
        </mxCell>
        <mxCell id="vzc5y1k5PjnZ1iydnmMH-89" value="A" style="ellipse;whiteSpace=wrap;html=1;aspect=fixed;" vertex="1" parent="1">
          <mxGeometry x="400" y="1130" width="70" height="70" as="geometry" />
        </mxCell>
      </root>
    </mxGraphModel>
  </diagram>
</mxfile>
